Coordinates
version=1
nRows=10
nColumns=33
inDegrees=yes

Units are S.I. units (second, meters, Newtons, ...)
Angles are in degrees.

endheader
time	ground_thorax_rot_x	ground_thorax_rot_y	ground_thorax_rot_z	ground_thorax_tx	ground_thorax_ty	ground_thorax_tz	clav_prot_r	clav_elev_r	scapula_abduction_r	scapula_elevation_r	scapula_upward_rot_r	scapula_winging_r	shoulder_elv_r	plane_of_elev_r	axial_rot_r	elbow_flexion_r	pro_sup_r	wrist_flex_r	wrist_dev_r	clav_prot_l	clav_elev_l	scapula_abduction_l	scapula_elevation_l	scapula_upward_rot_l	scapula_winging_l	shoulder_elv_l	plane_of_elev_l	axial_rot_l	elbow_flexion_l	pro_sup_l	wrist_flex_l	wrist_dev_l
      3.16000000	     -3.81198987	      0.85766266	      8.06708947	     -0.10075583	      1.03039771	      0.00413217	     17.06700306	    -12.36808723	     44.58057220	    -13.45178089	     26.09158464	    -13.06545188	     -2.64579035	    -54.14842929	    123.43575734	    -32.05290007	   -133.90997287	     -2.10824764	      7.73271675	     26.37610514	    -12.32043037	    -39.53644990	     -4.65908687	    -24.62913669	     13.41740694	     56.59254648	     -0.53659507	      5.30603067	     11.32638365	     12.26096188	     18.73241061	     -2.94126408
      3.17000000	     -3.81316172	      0.85831410	      8.06278003	     -0.10088847	      1.03063383	      0.00399709	     17.06689036	    -12.36577373	     44.57950086	    -13.44949095	     26.09019854	    -13.06636267	     -2.64626824	    -54.15118567	    123.43542115	    -32.05252175	   -133.91028193	     -2.10844043	      7.73244700	     26.37507485	    -12.31894087	    -39.53508494	     -4.66145720	    -24.63166379	     13.41919928	     56.59165296	     -0.53963721	      5.30621374	     11.32490932	     12.26090142	     18.73201646	     -2.94080248
      3.18000000	     -3.82676750	      0.86348539	      8.01411692	     -0.10084849	      1.03081785	      0.00378096	     17.06331649	    -12.33540434	     44.55635288	    -13.41685216	     26.06201980	    -13.07993897	     -2.64529732	    -54.20686084	    123.42534733	    -32.04457516	   -133.91379167	     -2.11028185	      7.72731901	     26.36867798	    -12.28942419	    -39.52766232	     -4.69615620	    -24.65226126	     13.42130332	     56.59513625	     -0.58178908	      5.31457079	     11.31044426	     12.25786022	     18.72612592	     -2.93689899
      3.19000000	     -3.57998131	      0.70929628	      8.00047491	     -0.10019861	      1.02940741	      0.00403369	     17.11749562	    -11.22317824	     45.00000000	    -12.57540753	     26.48884926	    -13.91653466	     -3.60726674	    -54.24175049	    123.30427650	    -32.29508221	   -135.48105986	     -1.63337761	      6.40995358	     25.63626678	    -11.68331127	    -38.42210223	     -5.19928853	    -24.55605879	     12.90240086	     56.11395630	     -0.14639537	      5.29643711	     11.48936924	     11.02733569	     17.45552348	     -2.60698289
      3.20000000	     -3.55074916	      0.68875548	      8.08621702	     -0.10040796	      1.02936341	      0.00397423	     17.19371390	    -11.25669775	     44.93616791	    -12.53777817	     26.22762756	    -13.91074590	     -3.75288584	    -54.43554502	    123.18721575	    -32.65268614	   -135.83010506	     -1.40557508	      6.14444053	     25.47529310	    -11.69478142	    -38.15070447	     -5.25499441	    -24.67865215	     12.72435292	     56.19542660	     -0.50352968	      5.37246105	     12.08813505	     10.68708472	     17.41110072	     -2.75336629
      3.21000000	     -3.48014260	      0.74230400	      8.13303775	     -0.10061429	      1.02917306	      0.00394170	     17.21086185	    -11.27109444	     44.71714280	    -12.46239917	     25.87092735	    -13.85637557	     -3.86273477	    -54.61203506	    123.01905299	    -33.13670195	   -136.36665123	     -1.08674757	      5.86801751	     25.24729687	    -11.66245388	    -37.77965924	     -5.31174089	    -24.71618630	     12.50347208	     56.23562429	     -0.75767959	      5.36872121	     12.65556513	     10.34212790	     17.40911234	     -2.90264831
      3.22000000	     -3.53664870	      0.72874406	      7.96923967	     -0.10046095	      1.02973224	      0.00370511	     17.11240735	    -11.98727554	     44.25780605	    -12.97840090	     25.48562723	    -13.25290993	     -3.77701462	    -55.07588663	    123.06792376	    -33.44187537	   -139.96311426	     -0.13876724	      4.71388252	     24.41238148	    -11.75566128	    -36.40968569	     -5.12658973	    -24.39571596	     11.66193398	     56.64596301	     -1.45949004	      4.16778839	     13.13021101	      9.00328560	     17.45217666	     -3.03632720
      3.23000000	     -3.40805018	      0.80038827	      8.13862023	     -0.10087386	      1.02906366	      0.00375769	     17.05551208	    -11.80176302	     43.87289445	    -12.71158780	     25.03520046	    -13.25294412	     -3.97056443	    -55.18317687	    123.01323345	    -34.07007930	   -140.30572560	     -0.01733820	      4.53801911	     24.21958926	    -11.58427907	    -36.10905415	     -5.33498068	    -24.51081843	     11.52022547	     56.48079667	     -1.54171583	      4.47821869	     13.81466688	      8.83559155	     17.37900953	     -3.15294588
      3.24000000	     -3.28714984	      0.93191457	      8.21377888	     -0.10130261	      1.02850931	      0.00385788	     17.01375372	    -11.72720032	     43.40159838	    -12.49835692	     24.43206216	    -13.16422531	     -4.09747880	    -55.24920284	    122.76527954	    -34.93288954	   -140.92053230	      0.20534143	      4.37918556	     23.99395333	    -11.49748993	    -35.74396848	     -5.45329427	    -24.58328226	     11.31873865	     56.46328125	     -1.69297438	      4.57598606	     14.57842340	      8.70115936	     17.28689880	     -3.30986915
      3.25000000	     -3.49336066	      1.04849543	      8.14485805	     -0.10115586	      1.02893550	      0.00350095	     16.51136582	    -12.87030559	     41.96903541	    -13.27017057	     23.56585707	    -11.88093725	     -3.96197274	    -55.74372253	    123.24606381	    -35.85549696	   -145.96547855	      0.46807598	      3.77334052	     23.24773647	    -11.35994501	    -34.54053002	     -5.49245012	    -24.33966738	     10.65301467	     56.74413186	     -2.18931211	      3.75501868	     15.35823919	      8.34832916	     16.91588115	     -3.46086679
